<svg viewBox="0 0 102 77" fill-rule="evenodd" clip-rule="evenodd" stroke-linecap="round" stroke-miterlimit="10"><title>Partly cloudy day</title><path d="M66.217 16.669a13.237 13.237 0 017.781-2.515c7.342 0 13.302 5.96 13.302 13.302 0 2.596-.745 5.019-2.033 7.068a22.782 22.782 0 00-11.348-3.007h-.203c-.275-6.107-3.07-11.18-7.499-14.848z" fill="currentColor"/><path d="M73.998 13.144v-8.35m-4.423 9.05l-2.58-7.94m-1.41 9.972l-4.907-6.753M87.61 31.879l7.94 2.58m-7.24-7.003h8.35m-9.05-4.424l7.94-2.58m-9.972-1.408l6.754-4.908m-9.922 1.74l4.908-6.754m-8.896 4.722l2.58-7.942" fill="none" stroke="currentColor" stroke-width=".95"/><path d="M64.16 76.294h9.76c12.088 0 21.887-9.8 21.887-21.89 0-12.088-9.8-21.887-21.888-21.887h-1.18c0-13.094-11.95-21.387-26.693-21.387-14.743 0-26.694 8.293-26.694 21.387 0 .05.004.1.004.15C8.462 33.924 0 43.174 0 54.406c0 12.088 9.798 21.887 21.886 21.887H64.16zM22.004 40.448s-2.83-4.84-2.646-7.778m50.74 6.466s3.02-2.704 2.646-6.616" fill="currentColor" fill-rule="nonzero"/></svg>