<svg viewBox="0 0 97 84" fill-rule="evenodd" clip-rule="evenodd" stroke-linejoin="round" stroke-miterlimit="2"><title>Cloudy night</title><path d="M55.62 18.341C56.772 8.023 65.523 0 76.149 0c2.271 0 4.454.373 6.498 1.05a11.615 11.615 0 00-1.027 4.78c0 6.426 5.209 11.636 11.635 11.636h-.001.001c1.118 0 2.198-.162 3.224-.456a20.77 20.77 0 01.327 3.648c0 9.044-5.812 16.73-13.905 19.528a22.837 22.837 0 00-7.982-1.43h-.203c-.471-10.446-8.314-17.865-19.096-20.415z" fill="currentColor" fill-rule="nonzero"/><path d="M64.16 83.533h9.76c12.088 0 21.887-9.8 21.887-21.89 0-12.088-9.8-21.887-21.888-21.887h-1.18c0-13.094-11.95-21.387-26.693-21.387-14.743 0-26.694 8.293-26.694 21.387 0 .05.004.1.004.15C8.462 41.163 0 50.413 0 61.645c0 12.088 9.798 21.887 21.886 21.887H64.16v.001zM22.004 47.687s-2.83-4.84-2.646-7.778m50.74 6.466s3.02-2.704 2.646-6.616" fill="currentColor" fill-rule="nonzero"/></svg>