<svg viewBox="0 0 116 90" fill-rule="evenodd" clip-rule="evenodd" stroke-miterlimit="10"><title>Fog</title><path d="M10.244 79.916h83m-71.162-4.75h83m-95.032-5h83" fill="none" stroke="currentColor" stroke-width="2"/><path d="M74.16 65.165h9.76c12.088 0 21.887-9.8 21.887-21.89 0-12.088-9.8-21.887-21.888-21.887h-1.18C82.74 8.293 70.79 0 56.046 0 41.303 0 29.352 8.293 29.352 21.388c0 .05.004.1.004.148C18.462 22.793 10 32.046 10 43.276c0 12.09 9.798 21.89 21.886 21.89H74.16v-.001zM32.004 29.319s-2.83-4.84-2.646-7.78m50.74 6.468s3.02-2.704 2.646-6.616" fill="currentColor" fill-rule="nonzero"/></svg>