<svg viewBox="0 0 115 91" fill-rule="evenodd" clip-rule="evenodd" stroke-miterlimit="10"><title>Partly cloudy night</title><path d="M64.16 90.152h9.76c12.088 0 21.887-9.8 21.887-21.89 0-12.088-9.8-21.887-21.888-21.887h-1.18c0-13.094-11.95-21.387-26.693-21.387-14.743 0-26.694 8.293-26.694 21.387 0 .05.004.1.004.15C8.462 47.782 0 57.032 0 68.264 0 80.352 9.798 90.15 21.886 90.15H64.16zM22.004 54.306s-2.83-4.84-2.646-7.778m50.74 6.466s3.02-2.704 2.646-6.616" fill-rule="nonzero"/><path d="M106.467 25.675c-8.276 0-14.985-6.71-14.985-14.985 0-2.195.477-4.276 1.323-6.157a26.565 26.565 0 00-8.369-1.352c-14.694 0-26.605 11.913-26.605 26.605S69.743 56.39 84.438 56.39c14.69 0 26.602-11.91 26.602-26.604 0-1.604-.15-3.173-.421-4.698a15.046 15.046 0 01-4.154.587h.002z" fill="none" stroke="currentColor" stroke-width="3.8636399999999997"/></svg>