<svg viewBox="0 0 483 445" fill-rule="evenodd" clip-rule="evenodd" stroke-linejoin="round" stroke-miterlimit="2"><path d="M20.121 25H0V0h482.629v25h-20.121c.079.849.119 1.709.119 2.578v245.566c0 15.22-12.357 27.578-27.578 27.578H254.281v44.56l79.102 78.232c4.905 4.85 4.949 12.772.098 17.677-4.851 4.905-12.772 4.949-17.677.098l-74.256-73.44-74.256 73.44c-4.906 4.85-12.827 4.807-17.678-.098-4.851-4.905-4.807-12.826.098-17.677l79.102-78.232v-44.56H47.58c-15.221 0-27.578-12.358-27.578-27.578V27.578c0-.87.04-1.73.119-2.578zm417.506 2.578v245.566a2.58 2.58 0 01-2.578 2.578H47.58a2.58 2.58 0 01-2.578-2.578V27.578A2.579 2.579 0 0147.58 25h387.469a2.579 2.579 0 012.578 2.578z"/></svg>