<svg viewBox="0 0 96 66" fill-rule="evenodd" clip-rule="evenodd" stroke-linejoin="round" stroke-miterlimit="2"><title>Cloudy</title><path d="M64.16 65.165h9.76c12.088 0 21.887-9.8 21.887-21.89 0-12.088-9.8-21.887-21.888-21.887h-1.18C72.739 8.293 60.789 0 46.046 0 31.303 0 19.352 8.293 19.352 21.388c0 .05.004.1.004.148C8.462 22.793 0 32.046 0 43.276c0 12.09 9.798 21.89 21.886 21.89H64.16v-.001zM22.004 29.319s-2.83-4.84-2.646-7.78m50.74 6.468s3.02-2.704 2.646-6.616" fill="currentColor" fill-rule="nonzero"/></svg>