<svg viewBox="0 0 96 93" fill-rule="evenodd" clip-rule="evenodd" stroke-linecap="round" stroke-linejoin="round" stroke-miterlimit="1.5"><title>Sleet</title><path d="M35.931 65.165H21.886C9.798 65.165 0 55.366 0 43.278c0-11.233 8.462-20.484 19.358-21.743 0-.05-.004-.098-.004-.148C19.354 8.293 31.305 0 46.048 0 60.79 0 72.74 8.294 72.739 21.389h1.18c12.088 0 21.888 9.799 21.888 21.887 0 12.088-9.799 21.888-21.887 21.888H62.785c-2.106-11.559-6.726-24.688-6.726-24.688S42.23 54.415 35.931 65.165zM22.004 29.32s-.707-1.21-1.392-2.788c-.684-1.577-1.346-3.522-1.254-4.992l2.646 7.78zm48.094-1.314s.755-.676 1.463-1.841c.708-1.165 1.37-2.819 1.182-4.775l-2.645 6.616z" fill="currentColor" fill-rule="nonzero"/><path d="M55.393 44.726s-19.367 20.618-21.834 30.86c-1.81 7.51 2.82 15.079 10.332 16.888 7.512 1.81 15.08-2.82 16.889-10.332 2.467-10.241-5.387-37.416-5.387-37.416z" fill="currentColor"/><path d="M85.515 70.859l-2.678 5.255 3.71 1.258-3.14 2.341 4.171 4.17-5.825-.921-.05 3.915-3.198-2.26-2.678 5.254-.922-5.825-3.74 1.163 1.163-3.74-5.825-.923 5.254-2.677-2.26-3.198 3.915-.05-.922-5.826 4.17 4.17 2.342-3.137 1.258 3.708 5.255-2.677zM25.86 70.859l-2.677 5.255 3.709 1.258-3.139 2.341 4.171 4.17-5.825-.921-.05 3.915-3.199-2.26-2.677 5.254-.922-5.825-3.74 1.163 1.162-3.74-5.825-.923 5.255-2.677-2.26-3.198 3.915-.05-.922-5.826 4.17 4.17 2.342-3.137 1.258 3.708 5.255-2.677z" fill="currentColor" stroke="currentColor" stroke-width="1.0030176"/></svg>