<svg viewBox="0 0 96 92" fill-rule="evenodd" clip-rule="evenodd" stroke-linecap="round" stroke-linejoin="round" stroke-miterlimit="1.5"><title>Snow</title><path d="M34.493 65.165l29.667-.001h9.76c12.088 0 21.887-9.8 21.887-21.888 0-12.088-9.8-21.887-21.888-21.887h-1.18C72.74 8.294 60.79 0 46.048 0 31.305 0 19.354 8.293 19.354 21.387c0 .05.004.098.004.148C8.462 22.794 0 32.045 0 43.278c0 12.088 9.798 21.887 21.886 21.887h12.607z" fill="currentColor"/><circle cx="21.5" cy="88.5" r="4.5" fill="currentColor" transform="translate(24.41 -12.882)"/><circle cx="21.5" cy="88.5" r="4.5" fill="currentColor" transform="translate(40.98 -12.882)"/><circle cx="21.5" cy="88.5" r="4.5" fill="currentColor" transform="translate(7.84 -12.882)"/><circle cx="21.5" cy="88.5" r="4.5" fill="currentColor" transform="translate(30.445 -1.929)"/><circle cx="21.5" cy="88.5" r="4.5" fill="currentColor" transform="translate(15.41 -1.929)"/><circle cx="21.5" cy="88.5" r="4.5" fill="currentColor" transform="translate(45.48 -1.929)"/></svg>