<svg viewBox="0 0 115 91" fill-rule="evenodd" clip-rule="evenodd" stroke-linejoin="round" stroke-miterlimit="2"><title>Thunderstorm</title><path d="M52.03 65.162H31.482c-12.087 0-21.886-9.798-21.886-21.886 0-11.232 8.463-20.482 19.356-21.739 0-.05-.004-.1-.004-.15C28.948 8.293 40.899 0 55.642 0c14.743 0 26.694 8.293 26.694 21.387h1.18c12.088 0 21.888 9.799 21.888 21.887 0 12.09-9.799 21.89-21.887 21.89h-9.761v-.002h-13.9l-.616-.586 6.307-13.153a.499.499 0 00-.325-.7l-2.355-.613a.503.503 0 00-.536.198L52.112 64.967a.5.5 0 00-.082.195zM31.601 29.318s-.708-1.21-1.392-2.787c-.685-1.578-1.347-3.522-1.254-4.991l2.646 7.778zm48.094-1.312s.755-.676 1.463-1.841c.708-1.165 1.369-2.819 1.182-4.775l-2.645 6.616z" fill-rule="nonzero"/><path d="M65.101 50.966l-2.36-.594L52.64 65.111l3.334 3.87-14.813 20.5 20.477-19.8-2.893-5.183 6.357-13.532z"/></svg>