<svg viewBox="0 0 89 100" fill-rule="evenodd" clip-rule="evenodd" stroke-linejoin="round" stroke-miterlimit="2"><title>Wind</title><path d="M59.289 52.418h9.02c11.17 0 20.224-7.883 20.224-17.608 0-9.723-9.056-17.606-20.226-17.606h-1.09C67.217 6.671 56.174 0 42.55 0 28.927 0 17.883 6.67 17.883 17.204c0 .04.004.08.004.12C7.82 18.333 0 25.777 0 34.81c0 9.725 9.054 17.608 20.224 17.608H59.29zM20.333 23.584s-2.615-3.893-2.445-6.258m46.888 5.203s2.791-2.175 2.445-5.322M35.868 77.795H21.92a1.59 1.59 0 00-1.587 1.586v3.172a1.59 1.59 0 001.587 1.586h14.097c1.576 0 3.053 1.08 3.311 2.637a3.176 3.176 0 01-6.146 1.537c-.209-.625-.853-1.001-1.507-1.001h-3.252c-.971 0-1.755.872-1.576 1.824.852 4.372 4.719 7.693 9.339 7.693 5.66 0 10.18-4.967 9.437-10.766-.604-4.799-4.927-8.268-9.755-8.268zM21.92 74.622h33.31c5.918 0 10.588-5.433 9.299-11.57-.754-3.588-3.658-6.493-7.247-7.246a9.539 9.539 0 00-11.391 7.485c-.188.952.605 1.814 1.566 1.814h3.252c.664 0 1.299-.377 1.507-1.001a3.191 3.191 0 013.014-2.171 3.181 3.181 0 013.132 3.707c-.257 1.557-1.725 2.637-3.31 2.637H21.92a1.59 1.59 0 00-1.587 1.587v3.172a1.59 1.59 0 001.587 1.586zm38.068 3.173H44.493a12.531 12.531 0 013.946 6.344h11.55a4.76 4.76 0 010 9.517c-1.775 0-3.302-.981-4.125-2.418-.287-.496-.862-.754-1.437-.754h-3.351c-1.08 0-1.884 1.07-1.517 2.092 1.765 5.016 6.99 8.407 12.828 7.168 4.085-.863 7.446-4.125 8.397-8.2 1.696-7.256-3.807-13.75-10.796-13.75z" fill="currentColor" fill-rule="nonzero"/></svg>