<svg xmlns="http://www.w3.org/2000/svg" xml:space="preserve" fill-rule="evenodd" stroke-linecap="round" stroke-linejoin="round" stroke-miterlimit="1.5" clip-rule="evenodd" viewBox="0 0 800 288"><path fill="none" d="M0 0h800v288H0z"/><clipPath id="a"><path d="M0 0h800v288H0z"/></clipPath><g clip-path="url(#a)"><path fill="#00782b" stroke="#004d2b" stroke-width="2.996373" d="M0 288.002s31.973-22.483 53.819-53.819c15.759-22.603 31.107-57.08 34.91-125.09 0 0 141.959 45.638 149.818-72.728 0 0 95.453 28.183 138.182-14.546l11.636 20.364 1.455 2.909 10.182 17.35c-58.37 15.64-81.688 112.397-81.688 112.397-106.438-52.378-137.894 93.382-137.894 93.382-57.79-29.191-94.813-20.071-116.328-14.019-21.91 6.163-64.091 33.8-64.091 33.8ZM800.003 288.002s-31.972-22.483-53.818-53.819c-15.759-22.603-31.107-57.08-34.91-125.09 0 0-141.96 45.638-149.818-72.728 0 0-95.453 28.183-138.182-14.546l-11.637 20.364-1.454 2.909-10.182 17.35c58.37 15.64 81.687 112.397 81.687 112.397 106.439-52.378 137.895 93.382 137.895 93.382 57.789-29.191 94.813-20.071 116.327-14.019 21.91 6.163 64.092 33.8 64.092 33.8Z"/><path fill="#004d2b" d="M736.003 241.456s-73.462-13.98-90.182-55.273c-16.72-41.293-122.182-74.182-122.182-74.182S417.616 54.751 400.002 21.82c0 0 109.415 83.88 128 82.91 18.585-.97 123.886 53.524 138.183 91.636 0 0 18.081 31.728 69.818 45.091ZM64 241.456s73.463-13.98 90.183-55.273c16.72-41.293 122.182-74.182 122.182-74.182s106.022-57.25 123.637-90.182c0 0-109.416 83.88-128 82.91-18.585-.97-123.886 53.524-138.183 91.636 0 0-18.081 31.728-69.818 45.091Z"/><circle cx="380" cy="97" r="27" fill="#e2000b" transform="matrix(.8889 0 0 .86196 38.223 -60.335)"/><circle cx="421.5" cy="185.5" r="14.5" fill="#e23e0b" transform="rotate(-45 157.665 140.19) scale(.95248 1.13084)"/><circle cx="380" cy="97" r="27" fill="#cb000a" transform="matrix(.8889 0 0 .86196 86.223 -60.335)"/><circle cx="380" cy="97" r="27" fill="#b3002c" transform="matrix(.8889 0 0 .86196 62.95 -42.88)"/><g transform="matrix(.4256 -.4256 .7022 .7022 100.164 81.485)"><circle cx="421.5" cy="185.5" r="14.5" fill="#b33a47"/></g><g transform="matrix(.4256 -.4256 .7022 .7022 122.625 63.947)"><circle cx="421.5" cy="185.5" r="14.5" fill="#cb2f0a"/></g></g></svg>