<svg viewBox="0 0 600 300" xmlns="http://www.w3.org/2000/svg" fill-rule="evenodd" clip-rule="evenodd" stroke-linejoin="round" stroke-miterlimit="2"><g id="Book-1" transform="translate(-869.486 -330.442) scale(2.17078)"><path fill="#91002c" d="M400 152.303h36.74v136.525H400z" transform="matrix(.8367 0 0 1 65.86 1.513)" id="Heel"/><path fill="#fff" fill-opacity=".49" d="M461.831 167.815h43.212v7.324h-43.212z" transform="matrix(.71139 0 0 .4096 72.001 95.08)" id="Stripe"/><path fill="#fff" fill-opacity=".49" d="M461.831 167.815h43.212v7.324h-43.212z" transform="matrix(.71139 0 0 .4096 72.001 102.08)" id="Stripe1"/><path fill="#fff" fill-opacity=".49" d="M461.831 167.815h43.212v7.324h-43.212z" transform="matrix(.71139 0 0 .4096 72.001 200.999)" id="Stripe2"/><path fill="#fff" fill-opacity=".49" d="M461.831 167.815h43.212v7.324h-43.212z" transform="matrix(.71139 0 0 .4096 72.001 207.999)" id="Stripe3"/></g><g id="Book-2" transform="translate(-655.205 -347.069) scale(2.17078)"><path d="M351 191a1 1 0 00-1-1h-16.43a1 1 0 00-1 1v106a1 1 0 001 1H350a1 1 0 001-1V191z" fill="#7fb700" id="Heel1"/><path d="M351 190s-14.15 40.495-9 58c5.15 17.505-9 32-9 32l18 18V190z" fill="#65a000"/></g><g id="Book-3" transform="scale(1.48522) rotate(-20.821 -50.87 999.362)"><path d="M351 191a1 1 0 00-1-1h-16.43a1 1 0 00-1 1v106a1 1 0 001 1H350a1 1 0 001-1V191z" fill="#006a9c" transform="matrix(.6511 .2307 -.40824 1.15216 255.197 -121.308)" id="Heel2"/><path d="M351 191a1 1 0 00-1-1h-16.43a1 1 0 00-1 1v106a1 1 0 001 1H350a1 1 0 001-1V191z" fill-opacity=".35" transform="matrix(.22448 .07954 -.40824 1.15216 397.078 -71.035)" id="Heel3"/></g><g id="Book-31" transform="rotate(-17.717 6.54 695.999) scale(1.48522)"><path d="M351 191a1 1 0 00-1-1h-16.43a1 1 0 00-1 1v106a1 1 0 001 1H350a1 1 0 001-1V191z" fill="#93a200" transform="matrix(.6511 .2307 -.40824 1.15216 255.197 -121.308)" id="Heel4"/><path d="M351 191a1 1 0 00-1-1h-16.43a1 1 0 00-1 1v106a1 1 0 001 1H350a1 1 0 001-1V191z" fill-opacity=".35" transform="matrix(.22448 .07954 -.40824 1.15216 397.078 -71.035)" id="Heel5"/></g><g id="Book-32" transform="scale(1.61602) rotate(-17.717 -53.8 494.824)"><path d="M351 191a1 1 0 00-1-1h-16.43a1 1 0 00-1 1v106a1 1 0 001 1H350a1 1 0 001-1V191z" fill="#374000" transform="matrix(.6511 .2307 -.40824 1.15216 255.197 -121.308)" id="Heel6"/><path d="M351 191a1 1 0 00-1-1h-16.43a1 1 0 00-1 1v106a1 1 0 001 1H350a1 1 0 001-1V191z" fill-opacity=".35" transform="matrix(.22448 .07954 -.40824 1.15216 397.078 -71.035)" id="Heel7"/></g><g id="Book-33" transform="rotate(-17.717 -3.542 756.63) scale(1.48522)"><path d="M351 191a1 1 0 00-1-1h-16.43a1 1 0 00-1 1v106a1 1 0 001 1H350a1 1 0 001-1V191z" fill="#914100" transform="matrix(.6511 .2307 -.40824 1.15216 255.197 -121.308)" id="Heel8"/><path d="M351 191a1 1 0 00-1-1h-16.43a1 1 0 00-1 1v106a1 1 0 001 1H350a1 1 0 001-1V191z" fill-opacity=".35" transform="matrix(.22448 .07954 -.40824 1.15216 397.078 -71.035)" id="Heel9"/></g><g id="Book-34" transform="rotate(-17.675 -14.192 818.66) scale(1.48522)"><path d="M351 191a1 1 0 00-1-1h-16.43a1 1 0 00-1 1v106a1 1 0 001 1H350a1 1 0 001-1V191z" fill="#393939" transform="matrix(.6511 .2307 -.40824 1.15216 255.197 -121.308)" id="Heel10"/><path d="M351 191a1 1 0 00-1-1h-16.43a1 1 0 00-1 1v106a1 1 0 001 1H350a1 1 0 001-1V191z" fill-opacity=".35" transform="matrix(.22448 .07954 -.40824 1.15216 397.078 -71.035)" id="Heel11"/></g><g id="Book-11" transform="translate(-336.217 -329.442) scale(2.17078)"><path fill="#00465e" d="M400 152.303h36.74v136.525H400z" transform="matrix(.8367 0 0 1 65.86 1.513)" id="Heel12"/><path fill="#fff" fill-opacity=".49" d="M461.831 167.815h43.212v7.324h-43.212z" transform="matrix(.71139 0 0 .4096 72.001 95.08)" id="Stripe4"/><path fill="#fff" fill-opacity=".49" d="M461.831 167.815h43.212v7.324h-43.212z" transform="matrix(.71139 0 0 .4096 72.001 102.08)" id="Stripe5"/><path fill="#fff" fill-opacity=".49" d="M461.831 167.815h43.212v7.324h-43.212z" transform="matrix(.71139 0 0 .4096 72.001 200.999)" id="Stripe6"/><path fill="#fff" fill-opacity=".49" d="M461.831 167.815h43.212v7.324h-43.212z" transform="matrix(.71139 0 0 .4096 72.001 207.999)" id="Stripe7"/></g><g id="Book-12" transform="translate(-403.947 -329.442) scale(2.17078)"><path fill="#00685f" d="M400 152.303h36.74v136.525H400z" transform="matrix(.8367 0 0 1 65.86 1.513)" id="Heel13"/><path fill="#fff" fill-opacity=".49" d="M461.831 167.815h43.212v7.324h-43.212z" transform="matrix(.71139 0 0 .4096 72.001 95.08)" id="Stripe8"/><path fill="#fff" fill-opacity=".49" d="M461.831 167.815h43.212v7.324h-43.212z" transform="matrix(.71139 0 0 .4096 72.001 102.08)" id="Stripe9"/><path fill="#fff" fill-opacity=".49" d="M461.831 167.815h43.212v7.324h-43.212z" transform="matrix(.71139 0 0 .4096 72.001 200.999)" id="Stripe10"/><path fill="#fff" fill-opacity=".49" d="M461.831 167.815h43.212v7.324h-43.212z" transform="matrix(.71139 0 0 .4096 72.001 207.999)" id="Stripe11"/></g><g id="Book-21" transform="matrix(-.85184 0 0 1.01688 430.043 -3.207)"><path d="M351 191a1 1 0 00-1-1h-16.43a1 1 0 00-1 1v106a1 1 0 001 1H350a1 1 0 001-1V191z" fill="#30283d" id="Heel14"/><path d="M351 190s-14.15 40.495-9 58c5.15 17.505-9.43 50-9.43 50H351V190z" fill="#727965"/></g><g id="Book-35" transform="scale(.82461) rotate(-20.821 445.265 792.052)"><path d="M351 191a1 1 0 00-1-1h-16.43a1 1 0 00-1 1v106a1 1 0 001 1H350a1 1 0 001-1V191z" fill="#b7c500" transform="matrix(.6511 .2307 -.40824 1.15216 255.197 -121.308)" id="Heel15"/><path d="M351 191a1 1 0 00-1-1h-16.43a1 1 0 00-1 1v106a1 1 0 001 1H350a1 1 0 001-1V191z" fill="#558200" fill-opacity=".35" transform="matrix(.22448 .07954 -.40824 1.15216 397.078 -71.035)" id="Heel16"/></g><g id="Book-36" transform="scale(.82461) rotate(-20.821 449.699 753.861)"><path d="M351 191a1 1 0 00-1-1h-16.43a1 1 0 00-1 1v106a1 1 0 001 1H350a1 1 0 001-1V191z" fill="#ffcb2a" transform="matrix(.6511 .2307 -.40824 1.15216 255.197 -121.308)" id="Heel17"/><path d="M351 191a1 1 0 00-1-1h-16.43a1 1 0 00-1 1v106a1 1 0 001 1H350a1 1 0 001-1V191z" fill="#558200" fill-opacity=".35" transform="matrix(.22448 .07954 -.40824 1.15216 397.078 -71.035)" id="Heel18"/></g><g transform="matrix(1.11256 -.02545 .04504 1.96875 -211.608 -278.197)"><g id="Book-37"><path id="Heel19" d="M351 191a1 1 0 00-1-1h-16.43a1 1 0 00-1 1v106a1 1 0 001 1H350a1 1 0 001-1V191z" fill="#c23800"/></g></g><g transform="matrix(1.11272 .01706 -.03018 1.96903 -168.813 -292.92)"><g id="Book-38"><path id="Heel20" d="M351 191a1 1 0 00-1-1h-16.43a1 1 0 00-1 1v106a1 1 0 001 1H350a1 1 0 001-1V191z" fill="#4e2400"/></g></g><g id="Book-13" transform="translate(-182.345 -78.04) scale(1.30145)"><path fill="#232323" d="M400 152.303h36.74v136.525H400z" transform="matrix(.8367 0 0 1 65.86 1.513)" id="Heel21"/><path fill="#fff" fill-opacity=".49" d="M461.831 167.815h43.212v7.324h-43.212z" transform="matrix(.71139 0 0 .4096 72.001 95.08)" id="Stripe12"/><path fill="#fff" fill-opacity=".49" d="M461.831 167.815h43.212v7.324h-43.212z" transform="matrix(.71139 0 0 .4096 72.001 102.08)" id="Stripe13"/><path fill="#fff" fill-opacity=".49" d="M461.831 167.815h43.212v7.324h-43.212z" transform="matrix(.71139 0 0 .4096 72.001 200.999)" id="Stripe14"/><path fill="#fff" fill-opacity=".49" d="M461.831 167.815h43.212v7.324h-43.212z" transform="matrix(.71139 0 0 .4096 72.001 207.999)" id="Stripe15"/></g><g id="Book-14" transform="translate(-223.352 -78.04) scale(1.30145)"><path fill="#232323" d="M400 152.303h36.74v136.525H400z" transform="matrix(.8367 0 0 1 65.86 1.513)" id="Heel22"/><path fill="#fff" fill-opacity=".49" d="M461.831 167.815h43.212v7.324h-43.212z" transform="matrix(.71139 0 0 .4096 72.001 95.08)" id="Stripe16"/><path fill="#fff" fill-opacity=".49" d="M461.831 167.815h43.212v7.324h-43.212z" transform="matrix(.71139 0 0 .4096 72.001 102.08)" id="Stripe17"/><path fill="#fff" fill-opacity=".49" d="M461.831 167.815h43.212v7.324h-43.212z" transform="matrix(.71139 0 0 .4096 72.001 200.999)" id="Stripe18"/><path fill="#fff" fill-opacity=".49" d="M461.831 167.815h43.212v7.324h-43.212z" transform="matrix(.71139 0 0 .4096 72.001 207.999)" id="Stripe19"/></g><g id="Book-15" transform="translate(-264.359 -78.04) scale(1.30145)"><path fill="#232323" d="M400 152.303h36.74v136.525H400z" transform="matrix(.8367 0 0 1 65.86 1.513)" id="Heel23"/><path fill="#fff" fill-opacity=".49" d="M461.831 167.815h43.212v7.324h-43.212z" transform="matrix(.71139 0 0 .4096 72.001 95.08)" id="Stripe20"/><path fill="#fff" fill-opacity=".49" d="M461.831 167.815h43.212v7.324h-43.212z" transform="matrix(.71139 0 0 .4096 72.001 102.08)" id="Stripe21"/><path fill="#fff" fill-opacity=".49" d="M461.831 167.815h43.212v7.324h-43.212z" transform="matrix(.71139 0 0 .4096 72.001 200.999)" id="Stripe22"/><path fill="#fff" fill-opacity=".49" d="M461.831 167.815h43.212v7.324h-43.212z" transform="matrix(.71139 0 0 .4096 72.001 207.999)" id="Stripe23"/></g><g id="Book-16" transform="translate(-305.366 -78.04) scale(1.30145)"><path fill="#232323" d="M400 152.303h36.74v136.525H400z" transform="matrix(.8367 0 0 1 65.86 1.513)" id="Heel24"/><path fill="#fff" fill-opacity=".49" d="M461.831 167.815h43.212v7.324h-43.212z" transform="matrix(.71139 0 0 .4096 72.001 95.08)" id="Stripe24"/><path fill="#fff" fill-opacity=".49" d="M461.831 167.815h43.212v7.324h-43.212z" transform="matrix(.71139 0 0 .4096 72.001 102.08)" id="Stripe25"/><path fill="#fff" fill-opacity=".49" d="M461.831 167.815h43.212v7.324h-43.212z" transform="matrix(.71139 0 0 .4096 72.001 200.999)" id="Stripe26"/><path fill="#fff" fill-opacity=".49" d="M461.831 167.815h43.212v7.324h-43.212z" transform="matrix(.71139 0 0 .4096 72.001 207.999)" id="Stripe27"/></g><path d="M178.024 90.544l1.867 5.744h6.039l-4.886 3.55 1.866 5.743-4.886-3.55-4.886 3.55 1.867-5.744-4.886-3.55h6.039l1.866-5.743z" fill="#c26900"/><path d="M35.999 72.275l9.016 6.551-4.508 6.206 7.294 2.37L44.358 98l-7.295-2.37v7.67H25.918v-7.67l-7.294 2.37-3.445-10.6 7.295-2.37-4.508-6.205 9.016-6.55 4.508 6.204L36 72.275z" fill="#d07c95"/></svg>