<svg viewBox="0 0 300 168" xmlns="http://www.w3.org/2000/svg" fill-rule="evenodd" clip-rule="evenodd" stroke-linejoin="round" stroke-miterlimit="2"><g id="Shelf-group" transform="translate(-158.423 -160.475)"><g id="Shelf" transform="matrix(.62092 0 0 1 60.055 0)"><path d="M618.421 449.888c0-9.121-.679-17.868-1.887-24.318-1.209-6.45-2.848-10.073-4.557-10.073H141.684c-3.544 0-6.417 15.332-6.417 34.244v35.989h483.154v-35.842z" fill="#853100" transform="matrix(1 0 0 .11636 23.156 248.655)" id="Shelf-Top"/><path d="M618.421 449.888c0-9.121-.679-17.868-1.887-24.318-1.209-6.45-2.848-10.073-4.557-10.073H141.684c-3.544 0-6.417 15.332-6.417 34.244v35.989h483.154v-35.842z" fill="#451600" transform="matrix(1 0 0 -.11636 23.156 361.689)" id="Shelf-Bottom"/></g><g id="Brackets" transform="translate(-15.985)"><path fill="#410000" d="M173 314h29v15h-29z" transform="matrix(.72414 0 0 1 319.709 -.656)" id="BracketRight"/><path fill="#410000" d="M173 314h29v15h-29z" transform="matrix(.72414 0 0 1 60.709 -.656)" id="BracketLeft"/></g></g><g id="Book-5" transform="matrix(.82456 0 0 .54546 -93.072 -27.839)"><path d="M401 275h51.98c2.219 0 4.02-3.153 4.02-7.036v-20.928c0-3.883-1.801-7.036-4.02-7.036h-51.96" fill="#ebebeb" transform="matrix(.97834 0 0 .51429 9.897 117.571)" id="Pages"/><path d="M453.109 238.253l-.129-.003h-51.96v3.5h51.96c1.667 0 3.02 2.368 3.02 5.286l1 1.75-1-1.75v20.928c0 2.918-1.353 5.286-3.02 5.286H401v3.5h51.98c2.77 0 5.02-3.937 5.02-8.786v-20.928c0-4.774-2.18-8.663-4.891-8.783z" fill="#885f00" transform="matrix(1 0 0 .57143 0 102.857)" id="Heel"/></g><g id="Book-51" transform="matrix(-.63158 0 0 .4091 540.841 -4.248)"><path d="M401 275h51.98c2.219 0 4.02-3.153 4.02-7.036v-20.928c0-3.883-1.801-7.036-4.02-7.036h-51.96" fill="#ebebeb" transform="matrix(.97834 0 0 .51429 9.897 117.571)" id="Pages1"/><path d="M453.109 238.253l-.129-.003h-51.96v3.5h51.96c1.667 0 3.02 2.368 3.02 5.286l1 1.75-1-1.75v20.928c0 2.918-1.353 5.286-3.02 5.286H401v3.5h51.98c2.77 0 5.02-3.937 5.02-8.786v-20.928c0-4.774-2.18-8.663-4.891-8.783z" fill="#32009e" transform="matrix(1 0 0 .57143 0 102.857)" id="Heel1"/></g><g id="Book-6" transform="translate(-166.423 -124.475)"><path d="M401 275h51.98c2.219 0 4.02-3.153 4.02-7.036v-20.928c0-3.883-1.801-7.036-4.02-7.036h-51.96" fill="#d0d0d0" transform="matrix(.92857 0 0 .51429 32.643 117.571)" id="Pages2"/><path d="M453.109 238.253l-.129-.003h-51.96v3.5h51.96c1.667 0 3.02 2.368 3.02 5.286l1 1.75-1-1.75v20.928c0 2.918-1.353 5.286-3.02 5.286H401v3.5h51.98c2.77 0 5.02-3.937 5.02-8.786v-20.928c0-4.774-2.18-8.663-4.891-8.783z" fill="#00422f" transform="matrix(1 0 0 .57143 0 102.857)" id="Heel2"/></g><g id="Book-1" transform="translate(-256.134 -153.816)"><path fill="#91002c" d="M400 152.303h36.74v136.525H400z" transform="matrix(.8367 0 0 1 65.86 1.513)" id="Heel3"/><path fill="#fff" fill-opacity=".49" d="M461.831 167.815h43.212v7.324h-43.212z" transform="matrix(.71139 0 0 .4096 72.001 95.08)" id="Stripe"/><path fill="#fff" fill-opacity=".49" d="M461.831 167.815h43.212v7.324h-43.212z" transform="matrix(.71139 0 0 .4096 72.001 102.08)" id="Stripe1"/><path fill="#fff" fill-opacity=".49" d="M461.831 167.815h43.212v7.324h-43.212z" transform="matrix(.71139 0 0 .4096 72.001 200.999)" id="Stripe2"/><path fill="#fff" fill-opacity=".49" d="M461.831 167.815h43.212v7.324h-43.212z" transform="matrix(.71139 0 0 .4096 72.001 207.999)" id="Stripe3"/></g><g id="Book-2" transform="translate(-157.423 -161.475)"><path d="M351 191a1 1 0 00-1-1h-16.43a1 1 0 00-1 1v106a1 1 0 001 1H350a1 1 0 001-1V191z" fill="#7fb700" id="Heel4"/><path d="M351 190s-14.15 40.495-9 58c5.15 17.505-9 32-9 32l18 18V190z" fill="#65a000"/></g><g id="Book-3" transform="rotate(-27.838 87.232 237.21) scale(.68419)"><path d="M351 191a1 1 0 00-1-1h-16.43a1 1 0 00-1 1v106a1 1 0 001 1H350a1 1 0 001-1V191z" fill="#006a9c" transform="matrix(.6511 .2307 -.40824 1.15216 255.197 -121.308)" id="Heel5"/><path d="M351 191a1 1 0 00-1-1h-16.43a1 1 0 00-1 1v106a1 1 0 001 1H350a1 1 0 001-1V191z" fill-opacity=".35" transform="matrix(.22448 .07954 -.40824 1.15216 397.078 -71.035)" id="Heel6"/></g></svg>