<svg xmlns="http://www.w3.org/2000/svg" xml:space="preserve" fill-rule="evenodd" stroke-linejoin="round" stroke-miterlimit="2" clip-rule="evenodd" viewBox="0 0 121 112"><g transform="matrix(.28605 0 0 .2963 -66.87 -35.285)"><path fill="#dfd100" d="M443.516 183.899c44.158-78.24 132.474-78.24 176.632-39.12 44.16 39.12 44.16 117.361 0 195.601-30.911 58.68-110.395 117.36-176.632 156.48-66.237-39.12-145.721-97.8-176.632-156.48-44.158-78.24-44.158-156.481 0-195.601 44.159-39.12 132.474-39.12 176.632 39.12Z"/><clipPath id="a"><path d="M443.516 183.899c44.158-78.24 132.474-78.24 176.632-39.12 44.16 39.12 44.16 117.361 0 195.601-30.911 58.68-110.395 117.36-176.632 156.48-66.237-39.12-145.721-97.8-176.632-156.48-44.158-78.24-44.158-156.481 0-195.601 44.159-39.12 132.474-39.12 176.632 39.12Z"/></clipPath><g clip-path="url(#a)"><path fill="#0f00ba" d="M195.707 119.083h522.257v188.888H195.707z"/></g></g></svg>